<?xml version="1.0" encoding="UTF-8" standalone="no"?>
<!-- Created with Inkscape (http://www.inkscape.org/) -->

<svg
   xmlns:dc="http://purl.org/dc/elements/1.1/"
   xmlns:cc="http://creativecommons.org/ns#"
   xmlns:rdf="http://www.w3.org/1999/02/22-rdf-syntax-ns#"
   xmlns:svg="http://www.w3.org/2000/svg"
   xmlns="http://www.w3.org/2000/svg"
   xmlns:sodipodi="http://sodipodi.sourceforge.net/DTD/sodipodi-0.dtd"
   xmlns:inkscape="http://www.inkscape.org/namespaces/inkscape"
   id="svg4136"
   version="1.1"
   inkscape:version="0.91 r13725"
   width="628.125"
   height="392.8125"
   viewBox="0 0 628.125 392.8125"
   sodipodi:docname="Book.svg">
  <metadata
     id="metadata4142">
    <rdf:RDF>
      <cc:Work
         rdf:about="">
        <dc:format>image/svg+xml</dc:format>
        <dc:type
           rdf:resource="http://purl.org/dc/dcmitype/StillImage" />
        <dc:title></dc:title>
      </cc:Work>
    </rdf:RDF>
  </metadata>
  <defs
     id="defs4140" />
  <sodipodi:namedview
     pagecolor="#ffffff"
     bordercolor="#666666"
     borderopacity="1"
     objecttolerance="10"
     gridtolerance="10"
     guidetolerance="10"
     inkscape:pageopacity="0"
     inkscape:pageshadow="2"
     inkscape:window-width="1600"
     inkscape:window-height="837"
     id="namedview4138"
     showgrid="false"
     inkscape:zoom="1.7056484"
     inkscape:cx="314.0625"
     inkscape:cy="196.40625"
     inkscape:window-x="-8"
     inkscape:window-y="-8"
     inkscape:window-maximized="1"
     inkscape:current-layer="svg4136" />
  <path
     style="fill:#000000"
     d="m 475.76164,391.94137 c -1.55767,-0.37357 -3.87798,-1.33526 -5.15625,-2.13709 -1.27827,-0.80185 -4.08477,-1.71845 -6.23665,-2.03692 -2.15188,-0.31847 -7.06159,-1.83999 -10.91048,-3.38116 -3.84888,-1.54116 -12.36738,-4.07778 -18.92999,-5.63691 -6.56261,-1.55913 -12.41071,-3.13381 -12.99578,-3.49929 -0.58505,-0.36548 -1.90749,-0.78568 -2.93874,-0.93377 -4.19122,-0.60188 -23.50298,-7.2515 -24.375,-8.39305 -0.51563,-0.67499 -3.25781,-1.4195 -6.09375,-1.65446 -2.83594,-0.23496 -6.84375,-0.85637 -8.90625,-1.38091 -2.0625,-0.52454 -7.125,-1.81316 -11.25,-2.86361 -4.125,-1.05044 -10.875,-2.94043 -15,-4.19998 -4.125,-1.25955 -8.77228,-2.53458 -10.32728,-2.83341 -3.88796,-0.74716 -11.87854,-4.69124 -11.09392,-5.47586 0.35197,-0.35197 -0.77171,-0.63995 -2.49709,-0.63995 -3.09222,0 -10.97435,-2.24195 -20.14421,-5.72969 -5.69946,-2.16778 -22.89316,-5.52031 -28.31138,-5.52031 -5.95616,0 -13.19871,1.78254 -19.91846,4.90235 -5.60269,2.60118 -6.66002,2.77777 -14.53125,2.42702 -5.33961,-0.23793 -9.63459,-0.95304 -11.57709,-1.92757 -1.6985,-0.85211 -5.0735,-1.83427 -7.5,-2.18255 -2.4265,-0.34829 -6.53328,-1.58853 -9.12617,-2.75612 -2.59288,-1.16757 -6.60069,-2.77857 -8.90625,-3.57998 -4.75533,-1.65297 -10.59684,-4.57128 -12.78455,-6.38691 -0.8807,-0.73092 -3.98158,-1.23259 -7.69147,-1.24437 -9.93959,-0.0315 -42.42444,1.50174 -46.52838,2.19613 -2.0625,0.34898 -11.97656,0.48666 -22.03125,0.30597 -36.019828,-0.64735 -40.962988,-0.63978 -54.375,0.0833 -7.476563,0.40302 -16.335938,0.66901 -19.6875,0.59109 -7.157256,-0.16641 -5.919645,-0.243 -15.9375,0.98639 -10.140298,1.24442 -21.8978888,1.30907 -24.0874315,0.13245 -0.9316002,-0.50063 -2.4611885,-1.14989 -3.3990852,-1.4428 -1.1867249,-0.37063 -1.52952014,-1.08629 -1.1273101,-2.35355 0.3178759,-1.00153 0.052932,-2.66168 -0.58876329,-3.68919 -1.0062955,-1.61133 -0.85129022,-2.13291 1.12731019,-3.79326 1.2617165,-1.05878 3.8672375,-2.19541 5.7900467,-2.52586 4.7401402,-0.81462 5.9472992,-1.92483 8.0448062,-7.39869 1.191733,-3.11007 2.864717,-5.41151 4.97143,-6.83895 1.746386,-1.18331 3.741999,-3.49176 4.434697,-5.12991 1.300246,-3.07498 5.191711,-7.24994 6.757602,-7.24994 0.489059,0 0.889198,-1.24449 0.889198,-2.76555 0,-1.52106 1.475478,-5.21246 3.27884,-8.20313 3.776791,-6.26337 4.007097,-7.99538 1.40866,-10.59382 -2.226801,-2.2268 -2.310843,-3.57108 -0.380969,-6.09375 1.434398,-1.875 1.434398,-1.875 2.846871,0 0.77686,1.03125 1.699995,2.3212 2.05141,2.86657 1.122023,1.74128 8.842137,4.79414 16.576438,6.55501 6.469655,1.47296 12.844917,1.74721 46.40625,1.99635 21.39844,0.15885 39.53906,0.32276 40.3125,0.36422 0.77344,0.0414 14.54973,-0.23036 30.61399,-0.60407 l 29.20774,-0.67948 4.15745,2.43643 c 2.28659,1.34004 7.39804,5.37987 11.35875,8.9774 4.06491,3.69216 8.42748,6.81027 10.01664,7.15931 3.3748,0.74123 8.39543,4.75677 8.39543,6.71473 0,2.64606 2.22206,0.65555 4.95376,-4.43754 1.50415,-2.80441 3.3252,-5.76496 4.04677,-6.579 0.72159,-0.81404 1.31197,-1.70271 1.31197,-1.97484 0,-0.27213 2.04433,-4.04751 4.54297,-8.38974 2.49862,-4.34222 5.2668,-10.07425 6.1515,-12.73786 0.88471,-2.66359 2.53179,-6.11416 3.66017,-7.66793 6.05823,-8.34209 7.63393,-10.56264 12.37338,-17.43706 2.84392,-4.125 5.96722,-9.23013 6.94069,-11.34473 0.97347,-2.1146 5.55958,-9.49741 10.19136,-16.40625 11.96188,-17.84251 13.79465,-20.92724 23.16335,-38.9861 1.11981,-2.15853 3.74501,-6.18813 5.83378,-8.95469 2.08877,-2.76655 4.94915,-7.32862 6.3564,-10.13791 1.40725,-2.8093 3.50526,-6.37344 4.66225,-7.92032 1.15698,-1.54687 3.05612,-4.71094 4.22027,-7.03125 1.16417,-2.32031 4.44794,-7.74738 7.29725,-12.06014 2.84933,-4.31276 5.9884,-9.96738 6.97573,-12.56582 0.98733,-2.59843 3.91151,-8.14012 6.49817,-12.314859 2.58667,-4.174734 5.20049,-8.430258 5.80851,-9.456715 0.608,-1.026456 2.37716,-3.979581 3.93145,-6.5625 1.55429,-2.582918 3.42341,-5.750903 4.1536,-7.039966 0.73019,-1.289062 2.63897,-4.664062 4.24173,-7.5 1.60276,-2.835937 3.5088,-6.632812 4.23565,-8.4375 0.72684,-1.804687 3.13621,-6.133222 5.35416,-9.618965 C 388.18532,47.832793 390,43.961026 390,42.714608 c 0,-1.430593 1.09515,-3.123294 2.97006,-4.590631 l 2.97005,-2.324419 -4.59158,-9.573493 C 386.42976,15.970375 383.45791,12.662605 375.05211,8.0875958 367.62171,4.0434637 358.27653,3.3696247 347.77468,6.1207423 344.44392,6.9932862 339.1875,8.0724136 336.09375,8.5188031 333,8.9651926 328.35937,9.8258156 325.78125,10.431299 319.34514,11.942845 269.29792,11.895482 258.75,10.367858 254.36719,9.7331147 246.21693,8.8743108 240.63831,8.4594098 232.27986,7.8377637 230.12738,7.3593523 228.40383,5.740156 l -2.09153,-1.9648885 -3.52201,6.0207769 c -1.9371,3.3114276 -3.83927,6.1533986 -4.22702,6.3154916 -1.10761,0.463007 -6.38586,10.325275 -7.05675,13.185339 -0.33261,1.417969 -0.98689,2.578125 -1.45396,2.578125 -0.94778,0 -6.61506,10.037807 -6.61506,11.716484 0,0.58906 -1.40089,2.728987 -3.11308,4.755392 -1.7122,2.026406 -4.0297,5.604735 -5.15001,7.951843 -1.12031,2.347107 -3.96054,6.521043 -6.31162,9.275412 -2.35109,2.75437 -5.06526,6.557544 -6.03148,8.451498 -0.96622,1.893955 -2.44824,4.017418 -3.29336,4.718807 -0.84512,0.701389 -2.19772,2.571604 -3.00579,4.156033 -0.80807,1.584429 -3.48483,5.460587 -5.94836,8.613684 -2.46353,3.153097 -5.37878,7.496328 -6.47833,9.651627 -1.09955,2.15529 -3.36468,5.48173 -5.03362,7.39209 -1.66895,1.91036 -4.66966,6.00463 -6.66826,9.09838 -1.9986,3.09375 -5.5244,8.09412 -7.83511,11.11194 -2.31071,3.01783 -5.09251,7.08394 -6.18176,9.03582 -2.90181,5.19984 -13.25791,20.80232 -15.23959,22.95991 -0.93841,1.0217 -1.75521,2.28733 -1.81512,2.8125 -0.0599,0.52516 -0.17318,1.48217 -0.25172,2.1267 -0.0786,0.64454 -0.74688,1.17188 -1.48521,1.17188 -0.73831,0 -2.29346,1.37109 -3.45586,3.04687 -1.16239,1.67579 -3.30049,4.43265 -4.75133,6.12638 -1.45084,1.69372 -2.63789,3.74238 -2.63789,4.55257 0,0.81019 -1.05643,2.30407 -2.34762,3.31972 -1.29119,1.01565 -3.68974,3.81856 -5.33011,6.22868 -1.640364,2.41011 -4.574289,5.94665 -6.519836,7.85897 -1.945545,1.91232 -4.457309,5.2802 -5.581697,7.48418 -2.366117,4.63797 -6.304995,9.79305 -11.626987,15.21702 -2.0625,2.10203 -4.804688,5.54381 -6.09375,7.64843 -1.289063,2.10461 -5.428962,6.59387 -9.199777,9.97616 -3.770814,3.38227 -7.778626,7.35563 -8.90625,8.82968 -3.847529,5.02956 -10.978021,11.68368 -11.905718,11.11033 -1.545292,-0.95505 -1.039187,-3.14731 0.975502,-4.22554 1.045693,-0.55964 1.691025,-1.35769 1.434075,-1.77344 -0.25695,-0.41576 1.313265,-2.16568 3.489367,-3.88872 2.176103,-1.72304 4.288602,-3.67252 4.694442,-4.33217 0.40584,-0.65967 2.648872,-2.51417 4.984515,-4.12113 2.417611,-1.66337 6.035214,-5.60931 8.399393,-9.16175 5.870461,-8.82101 9.109585,-12.92112 15.358322,-19.44071 3.005139,-3.1354 6.202958,-7.14321 7.106264,-8.90625 1.536971,-2.9998 4.405398,-6.75729 9.148596,-11.98416 1.106091,-1.21887 2.447888,-2.93799 2.981794,-3.82027 5.084105,-8.40154 14.841085,-21.79467 17.711455,-24.31197 0.9574,-0.83965 5.88785,-7.85475 10.95654,-15.58913 5.06868,-7.73437 10.40254,-15.69032 11.85301,-17.67988 1.45048,-1.98956 4.43929,-6.41925 6.64183,-9.84375 2.20253,-3.4245 6.06651,-8.38282 8.58662,-11.01848 2.52011,-2.63566 5.44082,-6.47551 6.49048,-8.533009 1.64371,-3.221943 12.21733,-19.570638 14.42258,-22.299881 2.69335,-3.333328 14.79309,-21.143431 17.12071,-25.200678 1.54688,-2.696346 3.70637,-6.14487 4.79888,-7.663385 1.09251,-1.518515 2.3143,-3.815625 2.71509,-5.104687 0.40078,-1.289063 1.82722,-3.98889 3.16986,-5.999618 3.2655,-4.89038 3.62149,-5.485979 4.25885,-7.125382 0.3007,-0.773438 1.38695,-2.671875 2.41389,-4.21875 1.02695,-1.546875 2.8413,-4.710938 4.0319,-7.03125 3.90482,-7.6099263 8.36199,-14.00572219 10.15764,-14.57563839 0.99338,-0.31528851 3.08795,0.23901148 4.79622,1.26925569 4.66636,2.814253 8.7487,3.7339157 19.34551,4.3581207 5.36268,0.3158891 10.14821,0.8202442 10.6345,1.1207889 1.69552,1.0478837 45.11127,1.3385134 55.44853,0.3711783 5.72915,-0.5361187 17.7481,-2.4654614 26.70879,-4.2874282 21.04478,-4.2790151 27.20515,-3.99431748 36.03711,1.6654335 11.0509,7.0817085 12.75475,9.4248645 19.4981,26.8142165 0.83683,2.157984 0.9797,2.088492 6.74573,-3.28125 6.78659,-6.320161 15.39173,-12.340005 20.8019,-14.552262 14.83407,-6.0657489 13.43618,-5.7625224 23.4375,-5.0840207 13.28523,0.901287 14.39993,1.106246 20.15625,3.7060987 7.73654,3.494227 19.56779,7.795846 24.79062,9.013405 2.54891,0.594207 6.34579,1.850617 8.4375,2.792021 2.09172,0.941406 5.70157,1.999379 8.02188,2.351054 9.53472,1.445113 24.5928,5.697978 35.42924,10.006306 6.33765,2.519707 14.14234,4.962208 17.34375,5.427778 3.20142,0.46557 8.14107,1.916174 10.97701,3.223562 3.01284,1.388943 9.24821,2.994606 15,3.862634 13.67846,2.064279 13.86039,2.118757 15.51654,4.646372 1.26462,1.930042 1.30782,2.840669 0.29949,6.313241 -0.64806,2.231836 -1.76816,4.991929 -2.48913,6.13354 -1.23971,1.963004 -1.06472,2.231753 3.22442,4.951842 4.15367,2.634175 5.11496,2.853944 11.42458,2.611844 6.66583,-0.255768 6.9623,-0.173111 9.13955,2.548158 1.23763,1.546875 2.25233,3.753182 2.25489,4.902904 0.007,2.970971 -2.68622,9.550136 -5.42509,13.254634 -3.08232,4.169034 -5.82025,11.522852 -5.82025,15.632632 0,3.61035 -2.13242,9.47991 -4.03765,11.11375 -0.66289,0.56847 -1.75072,2.72108 -2.41739,4.78358 -1.24558,3.85348 -11.55413,24.7939 -13.83268,28.09923 -0.70113,1.01706 -1.27478,2.81003 -1.27478,3.98437 0,1.17433 -0.42188,2.13515 -0.9375,2.13515 -0.51563,0 -0.9375,0.81885 -0.9375,1.81967 0,1.00082 -0.35039,2.03623 -0.77865,2.3009 -0.42825,0.26468 -1.96051,3.34817 -3.40502,6.85221 -2.58916,6.28071 -15.79652,34.10398 -17.48735,36.83972 -1.4598,2.36191 -7.97475,16.06413 -10.52355,22.13307 -1.32283,3.14976 -6.87975,14.75132 -12.34875,25.78125 -5.46898,11.02993 -11.01187,22.37474 -12.31754,25.21068 -1.30565,2.83594 -2.75703,5.8888 -3.22528,6.78415 -0.46825,0.89535 -0.85136,2.21395 -0.85136,2.93023 0,1.71871 -3.51196,9.76149 -10.2907,23.56687 -3.03821,6.1875 -6.25457,13.78125 -7.14748,16.875 -0.89293,3.09375 -2.60324,7.60537 -3.8007,10.02584 -1.19747,2.42047 -3.1119,7.27203 -4.2543,10.78125 -1.1424,3.50922 -3.23895,8.22817 -4.65901,10.48654 -1.42007,2.25837 -2.86443,6.05525 -3.2097,8.4375 -0.34528,2.38225 -1.08169,5.17512 -1.63648,6.20637 -0.55478,1.03125 -1.03684,2.29687 -1.07124,2.8125 -0.27204,4.07782 -5.97865,9.32483 -12.58591,11.57227 -3.50177,1.19113 -3.95402,1.20303 -8.08284,0.21285 z m 13.17964,-6.65793 c 1.36888,-1.13608 1.87332,-4.78135 0.80894,-5.84573 -0.30926,-0.30925 -1.57666,-0.10009 -2.81647,0.4648 -1.2398,0.56489 -2.52011,0.76112 -2.84515,0.43609 -0.7808,-0.7808 1.46395,-6.13276 2.93659,-7.00144 1.15188,-0.67948 4.58622,-6.71851 12.37471,-21.76007 2.26527,-4.3748 4.73323,-8.29811 5.48438,-8.71846 0.75115,-0.42037 1.36572,-1.55471 1.36572,-2.52078 0,-0.96607 0.96846,-2.94902 2.15213,-4.40654 1.18366,-1.45753 3.56994,-5.81412 5.30282,-9.68131 1.73289,-3.86719 3.92849,-8.15107 4.87913,-9.51972 0.95063,-1.36866 1.72842,-3.2787 1.72842,-4.24452 0,-0.96583 0.7281,-2.79557 1.618,-4.06608 0.88991,-1.27051 1.66564,-3.68179 1.72386,-5.3584 0.0582,-1.6766 0.76762,-3.78956 1.57645,-4.69545 0.80882,-0.90589 3.02349,-5.63574 4.92148,-10.51078 1.89799,-4.87503 4.25737,-9.88895 5.24306,-11.14205 0.98568,-1.2531 1.79215,-2.75253 1.79215,-3.33207 0,-0.57954 1.80859,-4.63592 4.01908,-9.01419 2.2105,-4.37827 5.21908,-10.91361 6.68575,-14.52299 1.46666,-3.60938 4.24494,-9.9375 6.17397,-14.0625 1.92902,-4.125 4.0278,-8.97656 4.66394,-10.78125 2.93592,-8.32897 3.93425,-10.60132 6.08725,-13.85551 1.26932,-1.91853 3.96365,-7.28512 5.98739,-11.92574 2.02374,-4.64063 4.77484,-10.33594 6.11354,-12.65625 1.3387,-2.32031 2.43908,-5.38729 2.44528,-6.8155 0.007,-1.42822 1.06599,-4.26749 2.35505,-6.3095 1.28906,-2.04201 2.34375,-4.3391 2.34375,-5.10463 0,-0.76555 0.80996,-1.82538 1.79992,-2.35519 0.98996,-0.52981 2.31414,-2.54856 2.94263,-4.48611 0.62849,-1.93755 1.95264,-4.67739 2.94257,-6.08852 3.64482,-5.19569 9.45856,-18.96232 9.73139,-23.04342 0.16386,-2.45119 1.01474,-4.95967 2.0834,-6.14212 2.25907,-2.49964 6.41014,-13.45499 7.68425,-20.28001 0.52943,-2.83594 1.75511,-6.236662 2.72376,-7.557169 3.04718,-4.154044 7.59208,-13.856494 7.59208,-16.207555 0,-3.236751 -1.53878,-4.054914 -8.64597,-4.597009 -7.23521,-0.55186 -7.38879,0.16381 -1.20501,5.615592 3.06474,2.701956 3.37049,3.370847 2.78547,6.09375 -0.36143,1.682253 -1.87813,5.378953 -3.37042,8.214891 -4.77338,9.07123 -13.02159,27.45291 -13.47597,30.03209 -0.59,3.34892 -2.61468,7.64883 -7.04788,14.96791 -2.03006,3.35156 -3.69928,6.61089 -3.70936,7.24297 -0.0101,0.63207 -0.86053,2.5305 -1.88985,4.21875 -1.02933,1.68824 -1.87308,4.04648 -1.875,5.24054 -0.004,2.58691 -1.65556,5.97316 -3.42162,7.0162 -0.69816,0.41234 -1.26939,1.17081 -1.26939,1.68547 0,1.06045 -11.48472,28.56967 -14.04075,33.63164 -2.12914,4.21656 -4.18882,8.97994 -5.68688,13.15193 -0.64802,1.80469 -2.84488,6.85901 -4.8819,11.23184 -2.03702,4.37283 -4.36728,9.64627 -5.17835,11.71875 -0.81107,2.07248 -2.35075,4.84193 -3.42152,6.15431 -2.11823,2.5962 -4.13517,6.91051 -9.62238,20.5826 -1.96595,4.89844 -6.21119,14.08566 -9.43384,20.41605 -3.22266,6.33038 -5.85938,12.05763 -5.85938,12.7272 0,0.66958 -1.03038,2.1854 -2.28973,3.3685 -1.25935,1.1831 -3.43997,5.36992 -4.84583,9.30404 -1.40584,3.93413 -2.85509,7.57483 -3.22052,8.09046 -0.36544,0.51562 -0.98659,1.99219 -1.38034,3.28125 -0.39374,1.28906 -2.59902,6.35156 -4.90061,11.25 -2.3016,4.89844 -5.22398,11.11472 -6.49418,13.81397 -1.27019,2.69924 -2.07432,5.28816 -1.78694,5.75315 0.28738,0.46499 -0.0781,1.34385 -0.81205,1.95301 -0.73401,0.60917 -2.23506,2.83525 -3.33568,4.94684 -1.10063,2.11158 -3.21644,4.97451 -4.70182,6.36207 -1.48538,1.38754 -3.40049,4.27177 -4.25579,6.40938 -1.3878,3.46846 -1.89119,3.88658 -4.67922,3.88658 -1.71827,0 -3.40185,-0.44935 -3.74128,-0.99857 -0.40939,-0.66241 -1.16161,-0.50585 -2.23445,0.46507 -1.47063,1.33089 -2.16364,1.28095 -7.64131,-0.55064 -3.3132,-1.10786 -8.06027,-2.88097 -10.54903,-3.94026 -2.48877,-1.05928 -5.67845,-1.83808 -7.08818,-1.73066 -1.6021,0.12207 -4.96211,-1.25159 -8.96139,-3.66368 -5.68699,-3.42997 -6.87918,-3.80468 -10.72433,-3.37065 -4.27597,0.48267 -13.7303,-1.28989 -19.32607,-3.62339 -1.54687,-0.64506 -5.13281,-1.85779 -7.96875,-2.69495 -2.83594,-0.83715 -8.10937,-2.39915 -11.71875,-3.47111 -3.60937,-1.07195 -9.72656,-3.15507 -13.59375,-4.62914 -3.86719,-1.47408 -10.01753,-3.28628 -13.66744,-4.02713 -3.6499,-0.74086 -8.07959,-2.22696 -9.84375,-3.30244 -2.04986,-1.24967 -4.80229,-1.9567 -7.62598,-1.95894 -2.43013,-0.002 -6.55903,-0.84726 -9.17533,-1.87851 -2.6163,-1.03125 -5.61981,-1.875 -6.67445,-1.875 -1.74925,0 -12.96539,-4.3692 -17.05607,-6.64413 -0.93459,-0.51975 -2.48821,-0.69459 -3.4525,-0.38854 -0.96428,0.30605 -4.20742,-0.24091 -7.20698,-1.21548 -2.99956,-0.97457 -7.32055,-1.83759 -9.6022,-1.91783 -2.28164,-0.0803 -5.04654,-0.73434 -6.14423,-1.45357 -1.09768,-0.71923 -5.36508,-2.37206 -9.48311,-3.67294 -7.08427,-2.23792 -7.786,-2.29582 -13.03554,-1.07552 -3.05151,0.70935 -5.74153,1.0964 -5.97782,0.86012 -0.23627,-0.23629 0.16806,-0.44243 0.89852,-0.45812 0.98738,-0.0212 0.92406,-0.26424 -0.24681,-0.94732 -1.05033,-0.61276 -2.33049,-0.57458 -3.84314,0.11463 -1.94023,0.88403 -2.6473,0.68212 -4.89008,-1.39642 -1.44203,-1.33644 -3.42892,-2.42988 -4.41532,-2.42988 -0.98639,0 -1.56766,-0.3653 -1.29172,-0.81177 0.27593,-0.44648 1.61333,-0.59927 2.97201,-0.33955 2.24149,0.4285 2.40642,0.26489 1.78052,-1.76635 -0.37937,-1.23122 -1.21642,-3.26432 -1.86009,-4.51799 -1.16102,-2.2613 -1.18575,-2.24452 -3.11169,2.10938 -1.06775,2.41382 -2.33604,4.38878 -2.81841,4.38878 -0.48236,0 -3.57414,-2.64454 -6.87062,-5.87675 -3.29647,-3.23221 -8.53573,-7.17783 -11.64279,-8.76806 -3.10706,-1.59023 -7.53384,-4.3299 -9.83727,-6.08816 -5.38148,-4.10777 -17.22119,-7.49266 -26.19021,-7.48759 -7.09075,0.004 -23.16628,1.19737 -26.72624,1.98401 -2.06662,0.45667 -7.34005,0.88419 -11.71875,0.95006 -4.3787,0.0658 -9.43782,0.24823 -11.24251,0.40527 -1.80469,0.15704 -10.03125,0.54631 -18.28125,0.86504 -8.25,0.31873 -17.953125,0.97958 -21.5625,1.46856 -3.609375,0.48898 -19.429688,1.14155 -35.15625,1.45017 -31.207565,0.6124 -30.9375,0.55893 -30.9375,6.12615 0,3.16758 3.557702,5.04194 7.049914,3.7142 1.518785,-0.57744 3.961012,-0.57482 6.800589,0.007 3.917227,0.80305 15.967833,2.06026 18.493247,1.92937 4.114207,-0.21324 51.59467,-1.09593 55.0838,-1.02404 2.45233,0.0505 5.33131,-0.37509 6.39771,-0.94581 1.06641,-0.57073 8.55214,-1.41493 16.63496,-1.876 8.08281,-0.46108 18.07103,-1.25209 22.19603,-1.75781 10.00559,-1.22667 24.42585,-1.54031 29.0625,-0.6321 4.51162,0.88371 13.51515,4.25574 15.46875,5.79339 2.49183,1.96128 9.53982,5.22298 10.09226,4.67053 1.11482,-1.11482 -2.02405,-5.14104 -4.82697,-6.19152 -1.60685,-0.60222 -5.9335,-2.52848 -9.61479,-4.28058 -3.68129,-1.7523 -7.74292,-3.18583 -9.02584,-3.18583 -1.28291,0 -2.90701,-0.69215 -3.60909,-1.5381 -1.1017,-1.32746 -2.78269,-1.46237 -12.27497,-0.98511 -6.04917,0.30416 -11.82678,0.9963 -12.83915,1.5381 -1.01238,0.54181 -4.63473,0.98511 -8.04968,0.98511 -3.41494,0 -7.97783,0.41458 -10.13975,0.9213 -8.59588,2.01472 -80.284473,4.23925 -97.68077,3.03109 -6.883836,-0.47808 -11.482206,-0.44043 -11.84831,0.097 -0.821997,1.20669 -2.865209,-0.18353 -2.096868,-1.42673 0.418824,-0.67768 4.258495,-0.78107 11.968418,-0.3223 10.266782,0.61092 20.209799,0.61299 42.28926,0.008 10.7823,-0.29505 39.80793,-2.1703 49.6875,-3.21014 21.31881,-2.24383 29.85682,-2.97455 40.35172,-3.45344 11.01193,-0.50249 11.43792,-0.44753 17.34375,2.23761 9.84878,4.47785 11.21078,4.96037 11.21078,3.9717 0,-2.46326 3.62692,-0.30656 9.09293,5.40701 4.46053,4.66252 6.59975,6.2524 8.14099,6.05043 2.80777,-0.36794 7.14108,3.16928 7.14108,5.82915 0,1.17173 0.76007,2.81826 1.68905,3.65897 1.72128,1.55775 14.63808,3.89879 16.19673,2.9355 0.47094,-0.29105 1.34763,0.54929 1.94821,1.86743 1.24192,2.72571 3.19136,3.06021 5.52524,0.94807 2.30882,-2.08945 6.8272,-2.23668 7.24244,-0.236 0.23892,1.15112 -1.24769,2.39381 -5.32715,4.45312 -5.11538,2.58223 -6.49355,2.85356 -14.35716,2.82661 -6.15884,-0.0211 -9.22995,-0.4317 -10.51842,-1.40625 -1.00089,-0.75704 -3.1993,-1.37644 -4.88535,-1.37644 -1.9005,0 -3.75804,-0.7433 -4.88767,-1.95582 -1.531,-1.64332 -2.14884,-1.78099 -3.86683,-0.86154 -2.57879,1.38012 -3.27398,0.7269 -1.91962,-1.80375 0.84562,-1.58005 0.768,-2.07891 -0.3928,-2.52435 -0.79566,-0.30533 -1.44667,-1.35375 -1.44667,-2.32984 0,-1.82648 1.37375,-2.40669 2.26891,-0.95828 0.27752,0.44902 1.77898,1.07129 3.33658,1.38281 2.17656,0.43531 2.83201,1.07088 2.83201,2.74609 0,2.6181 1.62233,4.42968 3.96692,4.42968 1.87281,0 3.53746,-2.96729 1.95969,-3.49321 -0.53526,-0.17842 -1.77132,-0.93673 -2.74679,-1.68512 -1.71766,-1.31783 -1.70044,-1.41793 0.54605,-3.17568 l 2.31961,-1.81497 -1.85086,-2.18113 c -3.39258,-3.99795 -5.2502,-4.71016 -4.46626,-1.71239 0.55627,2.12721 0.0141,2.30488 -2.66242,0.87245 -1.25845,-0.6735 -2.24539,-0.69375 -3.00698,-0.0617 -0.80024,0.66415 -3.15798,-0.28182 -8.01611,-3.21618 -3.78534,-2.28604 -7.1568,-4.15672 -7.49215,-4.15672 -0.33534,0 -2.21169,-0.85861 -4.16966,-1.90801 -1.95796,-1.04941 -6.3814,-2.25951 -9.82987,-2.6891 -8.5577,-1.06607 -31.24523,0.30809 -43.76992,2.65111 -5.67188,1.06106 -17.90625,2.41434 -27.1875,3.00729 -18.125362,1.15799 -18.246413,1.1608 -30.9375,0.71898 -4.640625,-0.16155 -13.5,0.0252 -19.6875,0.41496 -7.64659,0.4817 -13.351989,0.34452 -17.8125,-0.42826 -3.609375,-0.62533 -9.304688,-1.19376 -12.65625,-1.2632 -3.351563,-0.0695 -7.063213,-0.45698 -8.248114,-0.86121 -1.334448,-0.45525 -2.667893,-0.30878 -3.503686,0.38487 -0.742127,0.61591 -1.934243,0.89538 -2.649148,0.62105 -1.911382,-0.73347 -3.993204,4.15142 -3.519263,8.25777 0.05951,0.51562 2.8818,1.05368 6.271753,1.19569 6.573273,0.27535 7.631723,-1.10189 1.701794,-2.21435 -2.367272,-0.4441 -3.029438,-0.91149 -2.310252,-1.63068 0.719186,-0.71918 1.955247,-0.66565 4.312532,0.18675 1.817416,0.65719 4.48772,0.93498 5.93401,0.61733 1.446291,-0.31767 19.681695,-0.49038 40.523122,-0.38382 53.579092,0.27397 56.741692,0.19714 59.721242,-1.45078 6.94718,-3.84235 9.3481,-4.55951 15.04661,-4.49448 3.26527,0.0372 7.66568,-0.54222 9.77872,-1.28774 2.52642,-0.89138 4.15855,-1.0388 4.76679,-0.43056 1.0282,1.0282 1.02365,1.0303 -7.13122,3.29453 -3.73568,1.03723 -5.925,1.21743 -7.1068,0.58496 -1.17847,-0.63071 -2.99237,-0.48928 -5.85114,0.45623 -4.09161,1.35324 -4.03231,1.36434 4.76305,0.89152 4.89844,-0.26334 10.38281,-0.703 12.1875,-0.97702 1.80469,-0.27402 10.51441,-0.93406 19.35493,-1.46673 15.42298,-0.92929 16.21941,-0.8904 19.67362,0.96095 1.97996,1.06119 4.13353,1.92945 4.78569,1.92945 0.65217,0 1.18576,0.80361 1.18576,1.78579 0,1.95721 -1.73353,1.958 -13.59375,0.007 -9.30396,-1.53111 -16.89823,-1.21838 -40.3125,1.66001 -5.41104,0.6652 -12.46541,0.90392 -49.21875,1.66556 -14.695313,0.30454 -29.25,0.76744 -32.34375,1.02868 -5.575054,0.47075 -8.124284,0.57708 -41.71875,1.74006 -15.826432,0.54788 -23.6788722,1.41754 -25.0338395,2.77251 -1.302556,1.30255 0.7233893,3.42318 2.7777536,2.90757 1.1880479,-0.29818 3.2205229,0.008 4.5166129,0.68043 2.452328,1.27228 9.471658,0.97824 24.301973,-1.018 7.56529,-1.01833 52.407449,-3.33808 58.59375,-3.03114 23.35638,1.15886 77.57075,-0.10774 91.40625,-2.1355 4.38281,-0.64236 10.28906,-1.10111 13.125,-1.01947 13.60343,0.39168 12.96684,0.24454 14.58347,3.37074 0.82864,1.60241 1.27136,3.85079 0.98383,4.9964 -0.69531,2.77032 3.87283,6.18677 9.1431,6.838 2.13584,0.26391 6.29582,1.27236 9.2444,2.24099 3.9127,1.28535 8.10769,1.76114 15.52772,1.76114 9.91522,0 10.22899,-0.0651 12.68583,-2.62943 1.38553,-1.44618 2.51915,-3.10878 2.51915,-3.69467 0,-1.67237 1.55869,-2.25545 8.2751,-3.09557 4.88767,-0.61137 6.71029,-0.48704 8.3323,0.5684 2.70209,1.75826 9.0315,3.82357 14.29665,4.66506 2.30191,0.3679 6.5491,1.87011 9.43821,3.33825 2.8891,1.46813 7.50076,3.15141 10.24812,3.74061 2.74736,0.5892 6.72673,1.85763 8.84304,2.81873 2.1163,0.96109 5.11345,1.76082 6.66033,1.77719 1.54687,0.0163 4.92187,1.00714 7.5,2.20172 2.57812,1.19459 10.38281,3.52829 17.34375,5.186 15.68659,3.73569 17.70891,4.24733 30.33202,7.67394 5.59666,1.51925 11.16161,2.76227 12.36654,2.76227 1.20493,0 2.45152,0.42187 2.77019,0.9375 0.31868,0.51562 1.21047,0.9375 1.98176,0.9375 0.7713,0 3.25873,0.84568 5.52764,1.87928 5.76335,2.62551 31.39685,8.97971 31.39685,7.78286 0,-0.19422 0.94922,0.16318 2.10937,0.7942 1.16016,0.63102 2.74219,1.23938 3.51563,1.35192 0.77344,0.11254 4.78125,1.44366 8.90625,2.95804 4.125,1.51439 10.1471,3.3305 13.38244,4.03581 3.82675,0.83425 6.61152,2.06639 7.96875,3.52587 1.86396,2.00438 2.66454,2.19218 7.51196,1.76222 2.98411,-0.26469 6.0427,-0.99336 6.79688,-1.61926 z M 266.48437,320.91625 c 0.90235,-0.2358 2.37891,-0.2358 3.28125,0 0.90235,0.23581 0.16407,0.42875 -1.64062,0.42875 -1.80469,0 -2.54297,-0.19294 -1.64063,-0.42875 z m 214.72267,47.28687 c 1.30051,-2.70703 2.64917,-6.29296 2.997,-7.96875 0.43868,-2.11337 1.16452,-3.04687 2.36911,-3.04687 2.19008,0 4.67878,-3.58107 7.49257,-10.78125 1.20901,-3.09375 2.75758,-6.45715 3.44124,-7.47423 0.68367,-1.01706 1.24304,-3.18678 1.24304,-4.82157 0,-1.82069 0.56339,-3.18854 1.45407,-3.53033 0.79974,-0.30689 2.29193,-2.56686 3.31599,-5.02217 1.02405,-2.45531 2.44698,-5.72982 3.16207,-7.2767 5.73135,-12.39808 6.39294,-14.49141 5.08188,-16.07961 -1.1055,-1.33919 -1.09742,-1.63556 0.0552,-2.023 3.95884,-1.33072 12.99625,-16.67275 20.26222,-34.39739 5.61995,-13.70933 10.80694,-25.11218 12.15397,-26.71875 1.4708,-1.75418 6.52057,-11.85352 7.49607,-14.9918 0.39928,-1.28455 1.88337,-4.87049 3.29799,-7.96875 1.4146,-3.09826 2.88469,-6.68789 3.26687,-7.97695 0.38218,-1.28906 2.58613,-6.14063 4.89765,-10.78125 2.31153,-4.64063 5.60229,-12.23438 7.31278,-16.875 1.7105,-4.64063 4.2092,-10.68038 5.55267,-13.42169 1.34345,-2.74132 3.10807,-6.94416 3.92136,-9.33966 0.8133,-2.3955 3.70474,-8.80105 6.42543,-14.23456 6.23234,-12.44665 10.35192,-21.39336 11.23993,-24.41034 0.37943,-1.28906 3.59551,-8.3138 7.14686,-15.61052 6.48584,-13.326002 7.64082,-16.919355 5.12834,-15.955228 -0.73076,0.280421 -1.56127,-0.09632 -1.84558,-0.837198 -0.89619,-2.335454 -2.26513,-1.471909 -3.43772,2.168571 -0.62281,1.933594 -1.44711,3.9375 -1.83178,4.453125 -0.38465,0.515625 -1.33968,3.046875 -2.12229,5.625 -3.68843,12.15084 -8.01012,22.52824 -14.05526,33.75 -3.31092,6.14614 -6.27847,12.66172 -6.85691,15.05511 -0.80721,3.33989 -2.63503,7.49892 -10.27613,23.38239 -3.22469,6.70312 -7.43784,16.40625 -9.36256,21.5625 -1.92471,5.15625 -4.43801,10.42969 -5.58511,11.71875 -1.1471,1.28906 -2.33563,3.05717 -2.64119,3.92914 -0.30556,0.87196 -2.63453,4.45789 -5.17551,7.96875 -3.51119,4.85139 -5.21023,8.44866 -7.07949,14.98901 -1.95143,6.82781 -3.7897,10.61302 -8.89821,18.32243 -3.54126,5.34425 -7.23374,10.50495 -8.2055,11.46825 -2.09194,2.07369 -5.00691,6.69989 -8.29602,13.16617 -2.42412,4.76573 -4.69659,8.63813 -8.52748,14.53125 -1.17315,1.80469 -3.26607,6.02344 -4.65091,9.375 -1.38485,3.35156 -3.27124,7.78125 -4.192,9.84375 -0.92074,2.0625 -3.02974,7.75781 -4.68664,12.65625 -1.6569,4.89844 -3.53759,10.17188 -4.1793,11.71875 -1.86756,4.50189 -5.38551,14.79193 -5.92947,17.34375 -0.27478,1.28906 -1.88107,3.96641 -3.56954,5.94968 -1.75942,2.0666 -3.33388,5.1682 -3.68824,7.26562 -0.99867,5.91106 -2.68298,4.47939 -1.96065,-1.66654 0.4354,-3.70453 1.83056,-7.48048 4.5822,-12.40149 2.17591,-3.89139 4.10407,-7.50631 4.28479,-8.03314 0.18071,-0.52684 1.37054,-3.63524 2.64405,-6.90757 1.27351,-3.27234 2.05466,-6.21052 1.73589,-6.5293 -0.31878,-0.31878 -2.27971,1.40937 -4.35763,3.84032 -2.07792,2.43096 -4.37802,4.41992 -5.11134,4.41992 -1.79925,0 -1.68028,-0.82592 0.67521,-4.6875 1.10082,-1.80469 3.43278,-7.44002 5.18213,-12.52296 1.74935,-5.08292 4.19341,-10.56952 5.43126,-12.19242 1.23784,-1.6229 3.57423,-5.90079 5.19197,-9.50642 1.61773,-3.60563 3.51459,-7.18935 4.21523,-7.96382 0.70064,-0.77447 2.69913,-4.78313 4.44108,-8.90813 1.74195,-4.125 4.5144,-9.35627 6.161,-11.62504 1.6466,-2.26877 2.99382,-4.62461 2.99382,-5.2352 0,-0.61059 1.65642,-3.47478 3.68092,-6.36487 2.02452,-2.89008 4.55673,-7.23457 5.62715,-9.65443 1.07042,-2.41986 4.0659,-7.51018 6.65662,-11.31183 2.59072,-3.80165 5.11057,-7.96459 5.59965,-9.25099 0.73988,-1.94603 2.81066,-3.35638 2.81066,-1.91425 0,1.30799 -2.81601,6.48529 -6.7389,12.38961 -2.45584,3.69628 -5.1835,8.54784 -6.06146,10.78125 -1.76981,4.50218 -3.72425,7.86035 -6.1036,10.48735 -0.86633,0.9565 -2.10738,3.06588 -2.75788,4.6875 -0.6505,1.62162 -2.79271,5.35103 -4.76045,8.28758 -1.96778,2.93655 -3.57775,5.7248 -3.57775,6.1961 0,1.45552 -6.51427,15.043 -7.50592,15.65588 -0.51453,0.318 -2.15836,3.04285 -3.65296,6.05523 -1.4946,3.01239 -3.77911,7.31116 -5.07671,9.55284 -2.30799,3.98724 -7.58358,18.53785 -6.95069,19.17075 0.17591,0.17591 1.57561,-0.57229 3.11044,-1.66267 2.22475,-1.58052 3.52176,-4.09377 6.39662,-12.3949 1.98332,-5.72682 4.81781,-12.57314 6.29887,-15.21403 1.48107,-2.64089 2.69285,-5.29811 2.69285,-5.90493 0,-0.60683 1.59125,-3.5086 3.5361,-6.44839 1.94486,-2.93978 5.38561,-8.931 7.64612,-13.31381 3.96711,-7.69169 7.66778,-13.20938 13.72424,-20.4628 4.1736,-4.99844 8.27988,-12.81015 10.68054,-20.31845 2.58808,-8.09444 4.87941,-12.64388 9.53055,-18.92286 5.28363,-7.13283 9.57252,-15.38798 14.03518,-27.01464 2.17704,-5.67188 4.84032,-11.78906 5.91839,-13.59375 5.47686,-9.16824 12.94016,-27.1875 11.26064,-27.1875 -0.68779,0 -12.58176,18.70436 -12.58176,19.78596 0,1.16815 -7.14915,17.40997 -10.47946,23.80779 -2.82185,5.42103 -11.92335,18.83616 -15.82857,23.33049 -1.8433,2.12136 -4.9786,6.38826 -6.96733,9.48201 -1.98875,3.09375 -4.367,6.47605 -5.28501,7.51624 -2.59541,2.9408 -8.36952,13.4849 -17.18965,31.39001 -4.44499,9.02344 -8.67779,17.46094 -9.40624,18.75 -0.72845,1.28906 -3.46884,6.35156 -6.08977,11.25 -2.62091,4.89844 -5.90956,11.01562 -7.30812,13.59375 -2.61396,4.81865 -4.3509,8.7101 -7.5335,16.87809 -1.00522,2.57983 -2.67527,6.16576 -3.71124,7.96875 -1.03597,1.80299 -2.1806,4.33285 -2.54363,5.62191 -0.36303,1.28906 -1.88291,3.90104 -3.37751,5.8044 -1.49461,1.90336 -2.71747,4.04212 -2.71747,4.75282 0,0.71068 -1.00388,2.16501 -2.23083,3.23183 -1.22696,1.06683 -2.43985,2.514 -2.69531,3.21594 -0.33683,0.92549 -0.76349,0.99658 -1.55243,0.25863 -0.81747,-0.76463 -0.4998,-2.04655 1.27777,-5.15625 1.30115,-2.27624 2.3708,-4.8769 2.377,-5.77925 0.007,-0.90234 0.56477,-1.64062 1.24124,-1.64062 1.65971,0 4.58007,-4.10002 7.55871,-10.61201 1.35374,-2.95959 2.46135,-5.59117 2.46135,-5.84797 0,-0.2568 2.14261,-5.15692 4.76136,-10.88917 2.61873,-5.73225 4.56172,-11.18563 4.31775,-12.11861 -0.2739,-1.04739 0.32846,-2.20221 1.57457,-3.0187 1.11,-0.72729 3.86464,-4.85991 6.12142,-9.18357 2.25678,-4.32368 4.62418,-8.49403 5.26091,-9.26747 0.63672,-0.77344 2.74682,-4.99219 4.6891,-9.375 7.16044,-16.15776 20.50629,-40.39256 25.2973,-45.9375 1.11379,-1.28906 3.38755,-4.52617 5.05282,-7.19357 1.66527,-2.66739 3.62551,-5.34591 4.35612,-5.95226 5.23408,-4.3439 23.16177,-36.0242 25.6276,-45.28691 0.52549,-1.97395 1.96454,-4.92707 3.1979,-6.5625 5.70798,-7.56876 11.26651,-18.26758 14.25067,-27.42911 0.68626,-2.10683 2.48253,-6.32558 3.99172,-9.375 1.50919,-3.04942 3.30216,-7.02096 3.98438,-8.82565 0.68222,-1.80469 3.28531,-7.60845 5.78464,-12.897262 2.49934,-5.288804 4.54424,-9.813394 4.54424,-10.054645 0,-0.241251 1.28597,-3.246376 2.85771,-6.678053 3.20625,-7.000389 3.24541,-9.138491 0.17539,-9.576418 -2.66823,-0.380617 -3.86494,2.297666 -1.72561,3.861986 1.38427,1.012203 0.80938,2.619935 -5.59909,15.658084 -3.92798,7.991528 -8.07385,15.795688 -9.21306,17.342558 -2.3864,3.24038 -6.54872,11.1668 -7.55377,14.38487 -0.37745,1.20855 -1.92459,4.03219 -3.43808,6.27475 -1.51349,2.24258 -3.54825,6.49162 -4.52169,9.44232 -0.97345,2.95071 -2.41408,5.72542 -3.20142,6.16603 -1.34365,0.75195 -3.86748,5.60514 -9.13507,17.56624 -1.23148,2.79632 -3.60606,6.80413 -5.27683,8.90625 -1.67079,2.10212 -3.04188,4.12379 -3.04688,4.49261 -0.005,0.36881 -1.27472,2.66625 -2.8216,5.10541 -1.54687,2.43917 -2.8125,4.94196 -2.8125,5.56175 0,2.6179 -12.19293,20.92491 -16.32791,24.51545 -1.33215,1.15674 -2.42209,2.67338 -2.42209,3.37032 0,0.69693 -0.89216,2.07082 -1.98259,3.05307 -1.09042,0.98227 -2.36452,2.62968 -2.83132,3.66093 -0.4668,1.03125 -2.00042,3.66317 -3.40804,5.8487 -4.47184,6.94319 -10.52805,17.04458 -10.52805,17.56013 0,0.27358 0.61858,0.49742 1.37463,0.49742 1.13144,0 1.06554,0.53904 -0.37248,3.04687 -0.96092,1.67579 -2.03688,4.01837 -2.39103,5.20576 -0.35414,1.18739 -2.14882,4.77332 -3.98817,7.96875 -1.83935,3.19543 -4.18302,7.49737 -5.20817,9.55987 -1.02515,2.0625 -3.07066,5.21722 -4.54559,7.01048 -1.47493,1.79326 -2.68169,3.64803 -2.68169,4.12171 0,0.47369 -1.47656,3.08578 -3.28125,5.80465 -1.80469,2.71888 -3.28125,5.67585 -3.28125,6.57105 0,0.89519 -0.97902,2.93307 -2.1756,4.52862 -2.42306,3.23095 -6.2619,10.89407 -6.2619,12.50005 0,0.57108 -0.99453,2.23086 -2.21007,3.68838 -2.27933,2.73311 -9.03993,16.13032 -9.03993,17.91407 0,0.55262 0.68172,1.14116 1.51492,1.30788 1.19641,0.23938 0.70363,1.38194 -2.34375,5.43413 -2.3617,3.14044 -3.85867,6.14099 -3.85867,7.73438 0,1.43184 -0.1063,2.60335 -0.23623,2.60335 -0.12993,0 -4.45415,-0.81973 -9.60938,-1.82164 -13.94476,-2.7101 -22.43484,-5.17183 -25.59331,-7.42086 -1.5506,-1.10413 -4.23071,-2.01088 -5.9558,-2.01499 -11.46346,-0.0274 -32.16373,-4.12321 -41.10528,-8.13325 -5.79983,-2.60108 -18.58782,-6.70893 -19.1464,-6.15036 -1.07854,1.07854 -0.48387,1.95216 2.5454,3.73948 3.68898,2.17655 7.15247,3.08502 12.90838,3.38588 2.52742,0.1321 5.40283,1.02424 7.03125,2.18158 1.51531,1.07693 5.91918,2.88423 9.78637,4.01622 3.86719,1.13197 8.74372,2.62426 10.83672,3.31618 2.09302,0.69192 7.7251,1.69565 12.51575,2.23051 4.79065,0.53486 9.19537,1.35513 9.78828,1.82282 0.5929,0.46768 3.39831,1.59208 6.23425,2.49866 2.83594,0.90657 7.31363,2.61789 9.95042,3.80292 4.22766,1.90001 13.45288,4.17185 16.94051,4.17185 0.67874,0 1.23407,-0.6201 1.23407,-1.37799 0,-1.92305 5.08257,1.60949 9.75185,6.77781 1.97523,2.18635 4.10477,3.97518 4.73229,3.97518 0.62753,0 2.79328,1.459 4.81279,3.24222 2.0195,1.78323 4.14965,3.25979 4.73368,3.28125 0.58402,0.0215 2.12591,-2.17581 3.42643,-4.88285 z m 8.16796,-30.37796 c 0,-0.5718 2.7332,-6.59298 8.02046,-17.66891 1.23072,-2.57813 3.36507,-7.64063 4.74303,-11.25 4.14634,-10.86081 18.82063,-41.42832 20.33848,-42.3664 2.07722,-1.2838 1.01634,1.49546 -5.8248,15.25953 -4.07844,8.20565 -8.54351,17.87249 -9.92239,21.48187 -1.37886,3.60937 -3.55923,9.30469 -4.84525,12.65625 -1.28602,3.35156 -3.28821,7.78125 -4.4493,9.84375 -1.16109,2.0625 -2.85171,5.75391 -3.75694,8.20312 -0.90523,2.44922 -2.24379,4.45313 -2.97458,4.45313 -0.73079,0 -1.32871,-0.27555 -1.32871,-0.61234 z m -20.69197,32.72171 c -0.0368,-0.38671 -2.78721,-2.69484 -6.11196,-5.12916 -5.00908,-3.66756 -6.52346,-4.33036 -8.83696,-3.86766 -1.65647,0.3313 -3.36878,0.0797 -4.21025,-0.61868 -0.78005,-0.64739 -3.33844,-1.53579 -5.68528,-1.97424 -4.53621,-0.84745 -20.23612,-6.49413 -25.71358,-9.24822 -1.80518,-0.90766 -6.78313,-1.94711 -11.06581,-2.31067 -4.28151,-0.36347 -9.27572,-1.2839 -11.09825,-2.0454 -1.82252,-0.7615 -5.70228,-1.81655 -8.62169,-2.34455 -2.9194,-0.528 -7.83925,-2.24098 -10.933,-3.80661 -5.04849,-2.55487 -6.43699,-2.83271 -13.5476,-2.71092 -4.35743,0.0746 -8.12618,0.33927 -8.375,0.58809 -1.06986,1.06986 1.8382,2.4119 7.04243,3.25003 3.07939,0.49592 9.01628,2.38261 13.19307,4.19265 4.1768,1.81003 8.37447,3.29642 9.32814,3.30306 0.95368,0.007 4.40826,0.85041 7.67686,1.875 3.47279,1.08861 8.57544,1.86291 12.27658,1.86291 5.14749,0 6.65212,0.35189 8.0341,1.87896 2.02168,2.23393 5.87984,3.35066 15.7418,4.5564 5.79148,0.70807 7.78717,1.37276 9.61771,3.2033 1.2704,1.27041 4.30999,2.8106 6.75462,3.42265 9.88356,2.47447 15.88292,4.09631 19.44479,5.2566 4.56419,1.48679 5.17503,1.56678 5.08928,0.66646 z M 409.6875,354.375 c 0,-0.51563 -0.73828,-0.93104 -1.64063,-0.92315 -1.40207,0.0123 -1.43615,0.1465 -0.23437,0.92315 1.76926,1.14338 1.875,1.14338 1.875,0 z m 40.67734,-8.26936 c 0.91837,-1.48597 -3.09723,-6.73064 -5.15336,-6.73064 -1.63478,0 -1.79795,-0.24774 -0.8865,-1.34599 0.61439,-0.74029 2.33443,-1.61336 3.8223,-1.94015 1.65944,-0.36448 2.94075,-1.38442 3.3145,-2.63839 0.33509,-1.12432 2.60811,-4.99735 5.05115,-8.60672 2.44304,-3.60938 5.32757,-8.46094 6.41009,-10.78125 9.35834,-20.05927 11.68046,-24.27832 15.68988,-28.50681 7.18867,-7.58144 9.79447,-12.97119 12.7332,-26.33694 0.86876,-3.95118 2.10531,-6.52396 4.15556,-8.64602 1.60532,-1.66156 4.04081,-5.3125 5.41218,-8.11322 1.37138,-2.8007 3.58937,-6.39468 4.92888,-7.9866 1.33951,-1.59191 3.63344,-5.32378 5.09761,-8.29303 1.46418,-2.96925 5.33205,-8.63536 8.59528,-12.59136 9.3172,-11.29521 14.12079,-18.90158 20.32381,-32.18227 1.68584,-3.60938 4.03871,-7.61719 5.22861,-8.90625 2.54745,-2.75975 6.61646,-9.79571 7.5904,-13.125 0.3771,-1.28906 2.42482,-5.28349 4.55048,-8.87651 2.12567,-3.59302 5.41503,-9.49927 7.30972,-13.125 8.1715,-15.63722 10.0854,-19.13288 13.87517,-25.34224 2.20292,-3.60937 4.55135,-7.19531 5.21874,-7.96875 0.66739,-0.77344 3.15825,-5.130394 5.53525,-9.682116 2.377,-4.551732 4.98257,-9.284307 5.79015,-10.516838 2.75487,-4.204466 0.78955,-4.815645 -2.87732,-0.894796 -3.81693,4.081296 -12.70562,17.03967 -12.70562,18.52289 0,0.50563 -1.58203,3.49435 -3.51563,6.64159 -1.93359,3.14723 -4.15364,7.21023 -4.93344,9.02888 -0.77979,1.81865 -3.36371,6.25977 -5.74204,9.86914 -2.37832,3.60937 -5.11531,8.04028 -6.08219,9.84646 -1.59564,2.98075 -12.05879,16.6368 -13.67088,17.84265 -0.36883,0.27588 -1.36352,2.17431 -2.21044,4.21875 -3.38312,8.1667 -6.122,13.35094 -7.90674,14.9661 -1.03187,0.93384 -1.87614,2.26965 -1.87614,2.96845 0,0.69881 -1.47656,3.37129 -3.28125,5.93884 -1.80469,2.56755 -3.28125,4.87059 -3.28125,5.11788 0,1.02929 -9.48473,16.40239 -13.03463,21.12686 -2.1122,2.81108 -3.84037,5.80268 -3.84037,6.64799 0,0.84533 -1.31235,3.17699 -2.91633,5.18149 -1.60399,2.00449 -4.32523,5.7539 -6.04722,8.33203 -1.72199,2.57812 -4.42946,6.51302 -6.0166,8.74421 -1.58714,2.2312 -3.61199,5.47335 -4.49966,7.2048 -0.88767,1.73144 -4.25066,6.98392 -7.47332,11.67215 -3.22265,4.68824 -5.85937,8.85163 -5.85937,9.25197 0,0.9313 -12.40132,20.05318 -18.91726,29.16894 -2.74395,3.83876 -5.94012,8.90126 -7.1026,11.25 -3.58396,7.24117 -9.19886,15.99821 -11.08799,17.29288 -0.98912,0.67787 -4.32965,1.51477 -7.4234,1.85978 -3.09375,0.34501 -6.67969,1.38976 -7.96875,2.32166 -3.81459,2.75768 -6.73155,3.12008 -8.88103,1.10338 -1.39772,-1.31139 -3.88353,-1.93356 -9.40022,-2.35278 l -7.5,-0.56995 3.28125,1.79508 c 1.80469,0.9873 5.39063,2.09741 7.96875,2.46691 2.57813,0.36951 5.95313,1.222 7.5,1.89444 6.80998,2.96031 10.88042,4.15839 16.1557,4.75522 7.06931,0.7998 8.56808,1.58913 6.87988,3.6233 -0.81661,0.98395 -2.03431,1.28059 -3.68972,0.89887 -5.35725,-1.23536 -12.02624,-3.39536 -15.59586,-5.05131 -2.0625,-0.9568 -6.6726,-2.24513 -10.24466,-2.86295 -3.57206,-0.61783 -8.75206,-2.12166 -11.51111,-3.34184 -2.75904,-1.22018 -5.98512,-2.21851 -7.16905,-2.21851 -1.18394,0 -6.28264,-1.4569 -11.33044,-3.23757 -6.66848,-2.35238 -11.96536,-3.49784 -19.37314,-4.1895 -5.60742,-0.52356 -11.44451,-1.5979 -12.97128,-2.38743 -1.52678,-0.78952 -3.87933,-1.4355 -5.22789,-1.4355 -1.34857,0 -3.33913,-0.47481 -4.42345,-1.05512 -1.08433,-0.58031 -6.29737,-2.2253 -11.58456,-3.65553 -5.28717,-1.43023 -12.28242,-3.8973 -15.54498,-5.48238 -3.26257,-1.58509 -7.61944,-3.26959 -9.68194,-3.74333 -9.94063,-2.28329 -15.24137,-4.06583 -17.8125,-5.99004 -2.3471,-1.75655 -3.89898,-2.08172 -9.37833,-1.96509 -6.38213,0.13585 -15.51451,2.37259 -18.19513,4.45642 -1.35159,1.05068 -5.70779,10.13511 -5.70779,11.90304 0,0.53736 2.43702,-1.58404 5.4156,-4.71423 3.50639,-3.68485 6.16207,-5.69124 7.53298,-5.69124 1.16456,0 3.15684,-0.68107 4.42727,-1.51349 2.12597,-1.39299 2.56382,-1.39299 5.49932,0 1.75419,0.83242 3.96128,1.51349 4.90464,1.51349 0.94336,0 3.83273,0.81549 6.42082,1.81221 2.58809,0.99672 8.29156,3.12951 12.67437,4.73954 4.38281,1.61003 9.23438,3.60034 10.78125,4.42292 1.54688,0.82256 4.07112,2.14479 5.60944,2.93827 1.53832,0.79349 5.75707,2.01462 9.375,2.71363 3.61793,0.69901 8.4765,1.64853 10.79681,2.11004 2.32031,0.46152 5.9974,0.86427 8.17132,0.89501 2.17391,0.0308 5.33797,0.64954 7.03125,1.37514 1.69327,0.72559 5.82087,2.03619 9.17243,2.91245 6.48759,1.69617 22.07219,6.71883 29.0625,9.36637 2.42153,0.91715 10.00977,2.08319 17.8125,2.73715 12.98237,1.08806 16.37186,1.93173 19.82194,4.93385 0.84739,0.73735 5.90989,2.10398 11.25,3.03693 11.82345,2.06564 12.75413,2.14749 13.3554,1.17463 z m 5.70659,-7.28477 c 2.37011,-4.99464 1.27991,-5.66198 -2.19193,-1.34174 -1.86745,2.32378 -2.88219,4.44952 -2.54432,5.32997 0.75751,1.97403 2.67197,0.36191 4.73625,-3.98823 z M 265.07799,333.203 c -0.89339,-0.8934 -2.68452,0.55368 -2.01871,1.63097 0.39573,0.64031 0.92011,0.62414 1.59341,-0.0491 0.55196,-0.55196 0.74335,-1.26378 0.4253,-1.58181 z m 80.85951,1.52082 c 0,-1.01108 -8.61062,-3.78632 -11.74762,-3.78632 -1.11778,0 -4.81473,-1.47656 -8.21548,-3.28125 -6.18552,-3.2825 -8.48646,-3.81736 -11.48009,-2.6686 -2.12026,0.81362 7.77031,5.47018 13.63069,6.41744 2.32031,0.37504 4.64062,0.99944 5.15625,1.38753 3.04217,2.28973 12.65625,3.75673 12.65625,1.9312 z m 13.125,-1.88724 c 0,-2.36065 -12.24684,-5.95341 -13.48188,-3.95509 -0.32581,0.52716 0.99231,1.78318 2.92913,2.79115 3.73709,1.94487 10.55275,2.69662 10.55275,1.16394 z m -19.21875,-5.64908 c -1.96596,-2.17236 -0.81119,-2.42784 2.71195,-0.60002 2.67434,1.38746 7.41006,0.96605 6.88385,-0.61257 -0.54863,-1.64591 -7.53353,-3.60275 -10.75454,-3.01292 -1.66855,0.30555 -3.8145,0.13769 -4.76877,-0.37302 -0.95427,-0.51071 -6.12732,-1.82365 -11.49567,-2.91766 -5.36835,-1.094 -10.39428,-2.5504 -11.16873,-3.23647 -1.92104,-1.70177 -22.70052,-9.40759 -29.06434,-10.77815 -2.83594,-0.61077 -6.53212,-1.81001 -8.21372,-2.66499 -2.49546,-1.26875 -3.39784,-1.34192 -4.90915,-0.3981 -1.01843,0.63602 -2.40578,1.1564 -3.083,1.1564 -1.975,0 -9.10663,4.98569 -9.10663,6.3664 0,1.34522 1.53411,1.07032 7.38011,-1.32245 4.0537,-1.65918 6.57992,-1.6328 10.75654,0.1123 1.85109,0.77344 4.98472,1.40625 6.9636,1.40625 2.3657,0 4.68599,0.80272 6.77475,2.34375 1.74723,1.28906 3.95217,2.34375 4.89988,2.34375 0.94771,0 5.18996,1.33717 9.42724,2.97148 4.23727,1.63431 10.44781,3.22314 13.80119,3.53073 4.03422,0.37004 7.32734,1.31962 9.73339,2.80663 4.39279,2.7149 9.61519,4.65669 12.67423,4.71251 2.19561,0.04 2.21023,-0.007 0.55782,-1.83385 z M 210.9375,325.5 c 0,-2.54012 -1.89644,-3.9375 -5.34375,-3.9375 -4.02162,0 -4.04511,1.99885 -0.0469,3.98871 4.0281,2.00472 5.39063,1.99177 5.39063,-0.0512 z m 252.15769,-2.47606 c -0.0164,-0.54598 -0.64922,-0.17377 -1.40625,0.82712 -0.75704,1.00089 -1.36302,2.26652 -1.34663,2.8125 0.0164,0.54598 0.64922,0.17377 1.40625,-0.82712 0.75704,-1.00089 1.36302,-2.26652 1.34663,-2.8125 z m -40.11172,0.88231 c 2.2264,-1.87339 3.8121,-2.34375 7.90131,-2.34375 4.49945,0 5.46278,-0.35484 7.99449,-2.94474 1.58322,-1.61962 4.499,-6.29556 6.47951,-10.391 1.9805,-4.09543 4.78421,-8.97285 6.23044,-10.83871 4.81033,-6.206 28.77591,-43.1835 32.34744,-49.91022 1.23843,-2.33251 4.9726,-8.11353 8.29815,-12.8467 7.43647,-10.58416 17.13422,-25.69467 21.51519,-33.5238 1.80469,-3.22512 4.54687,-7.83754 6.09375,-10.24983 8.19601,-12.78134 10.61972,-16.932 15.64647,-26.795 3.02211,-5.92969 7.09809,-12.67969 9.05772,-15 4.93456,-5.84277 16.97595,-24.76458 23.10831,-36.31231 7.07122,-13.315687 13.6595,-24.006125 18.39103,-29.842066 7.88581,-9.726478 11.92742,-16.143937 13.516,-21.461354 1.77609,-5.945029 0.8781,-6.951335 -6.62865,-7.428254 -9.41501,-0.598154 -14.73908,-1.697799 -20.12213,-4.156063 -2.83594,-1.295081 -8.7136,-2.931087 -13.06147,-3.635569 -4.34787,-0.704483 -8.35568,-1.643035 -8.90625,-2.085672 -1.9922,-1.601661 -13.35436,-5.507506 -20.68853,-7.111872 -4.125,-0.902352 -9.91247,-2.431222 -12.86105,-3.397489 -2.94857,-0.966269 -6.61485,-1.756851 -8.14726,-1.756851 -1.53241,0 -5.80606,-1.089327 -9.49702,-2.420728 -3.69095,-1.3314 -8.67312,-2.976782 -11.07149,-3.656403 C 484.11986,24.534173 472.38885,20.016311 465.2093,16.797538 463.0041,15.808892 459.34015,15 457.0672,15 c -2.27295,0 -5.24662,-0.423537 -6.60816,-0.941193 -4.28443,-1.628939 -12.14564,-1.483517 -15.80674,0.292404 -1.85621,0.900411 -4.96312,2.311592 -6.90424,3.135958 -5.58954,2.373797 -7.1598,3.296717 -14.67034,8.622511 -3.89047,2.758761 -7.32346,5.711886 -7.62888,6.5625 -0.30543,0.850613 -2.39016,3.023132 -4.63275,4.82782 -2.38582,1.919949 -4.70109,4.859708 -5.58068,7.085931 -0.82678,2.092574 -2.13201,4.623824 -2.90051,5.625 -3.14035,4.091135 -5.82918,8.640528 -6.37682,10.789351 -0.31972,1.254532 -2.10165,4.60128 -3.95983,7.437218 -1.85817,2.835937 -4.60538,7.551299 -6.1049,10.478581 -1.49951,2.927282 -3.15219,5.585487 -3.67261,5.907123 -0.52041,0.321635 -2.45773,3.727368 -4.30514,7.568294 -1.84741,3.840927 -3.68031,6.983502 -4.07313,6.983502 -1.2429,0 -6.40929,8.77238 -7.11948,12.08871 -0.74727,3.48942 -5.05334,11.24288 -8.55559,15.40506 -1.22645,1.45755 -2.2299,3.03146 -2.2299,3.49757 0,0.46612 -2.05912,3.91421 -4.57581,7.66245 -4.31834,6.43151 -7.78313,12.26719 -12.39549,20.87746 -1.10484,2.0625 -2.79567,4.49995 -3.7574,5.41658 -0.96173,0.91661 -2.01928,2.74503 -2.35011,4.06317 -0.33083,1.31812 -1.57225,3.36733 -2.7587,4.55378 -1.18645,1.18645 -2.62463,3.89318 -3.19597,6.01495 -0.57134,2.12177 -1.42139,3.85777 -1.889,3.85777 -0.46762,0 -1.40057,1.04256 -2.07324,2.3168 -0.67267,1.27424 -2.48426,4.75471 -4.02577,7.73437 -1.5415,2.97967 -4.38916,7.45937 -6.32813,9.95489 -1.93895,2.49552 -3.52637,5.02677 -3.52758,5.625 -9.4e-4,0.59823 -1.23103,2.52547 -2.73294,4.28276 -1.5019,1.75727 -3.83498,5.45022 -5.18462,8.20652 -2.54119,5.18982 -4.77552,8.7084 -9.18961,14.47173 -1.41797,1.85139 -2.57813,3.77057 -2.57813,4.26486 0,1.10516 -4.92663,8.02441 -9.04989,12.7102 -3.68118,4.18341 -6.58283,9.69124 -8.49147,16.11833 -0.7783,2.62083 -3.5468,7.9333 -6.15223,11.80547 -5.11015,7.5947 -9.64558,16.6699 -8.76903,17.54645 0.89281,0.89281 3.40012,-1.70067 3.40012,-3.51697 0,-1.83095 8.11324,-9.46449 12.65625,-11.90796 1.91153,-1.02812 5.23311,-1.51867 10.3688,-1.53133 7.71872,-0.019 12.51469,1.23858 15.8812,4.16436 1.03125,0.89624 3.5625,2.50213 5.625,3.56862 11.16433,5.77293 15.56696,7.40357 22.90613,8.48396 5.50566,0.81049 9.91765,2.17716 14.53125,4.50126 3.64381,1.83557 10.00012,4.29669 14.12512,5.46914 8.54608,2.42907 13.77085,4.15876 24.22073,8.01841 4.04014,1.49221 8.0998,2.71313 9.02145,2.71313 0.92164,0 3.52528,0.81815 5.78583,1.81809 2.49698,1.10454 6.62693,1.89958 10.5227,2.0257 3.52692,0.11418 8.58647,0.74196 11.24344,1.39508 2.65697,0.65311 6.51835,1.58667 8.58085,2.07459 2.0625,0.4879 3.90004,0.94041 4.08341,1.00557 0.18339,0.0652 1.58684,-0.93622 3.11881,-2.22528 z M 309.375,324.53526 c 0,-1.2285 -8.34844,-4.72167 -14.7253,-6.16139 -3.20048,-0.72256 -7.06248,-2.19916 -8.58223,-3.28132 -1.58818,-1.13089 -4.21245,-1.96755 -6.17142,-1.96755 -1.87454,0 -5.07893,-0.85232 -7.12088,-1.89405 -3.5635,-1.81795 -3.90277,-1.83186 -8.44527,-0.34608 -3.3974,1.11123 -4.65034,1.9753 -4.44094,3.06261 0.23181,1.20373 1.54003,1.52285 6.37324,1.55467 3.34486,0.022 7.55811,0.61068 9.3628,1.30814 7.42295,2.86873 10.19179,3.67532 17.34375,5.05238 4.125,0.79424 8.97656,1.85218 10.78125,2.35099 4.30708,1.19044 5.625,1.26579 5.625,0.3216 z M 464.0625,320.625 c 0,-0.51563 -0.18604,-0.9375 -0.41342,-0.9375 -0.22738,0 -0.67416,0.42187 -0.99283,0.9375 -0.31867,0.51562 -0.13264,0.9375 0.41342,0.9375 0.54606,0 0.99283,-0.42188 0.99283,-0.9375 z m -96.79242,-3.03351 c -0.21239,-0.63718 -2.20575,-1.46912 -4.42969,-1.84878 -2.22394,-0.37965 -6.64501,-1.90767 -9.82461,-3.39558 -3.17959,-1.48791 -7.79941,-3.00796 -10.26625,-3.37789 -4.95572,-0.74316 -12.38339,-3.66031 -14.73282,-5.7862 -0.833,-0.75373 -6.13836,-2.16375 -11.78969,-3.13336 -10.2879,-1.76513 -16.30524,-3.69203 -19.00521,-6.08596 -4.20322,-3.72677 -20.82572,-10.83872 -25.33294,-10.83872 -3.76727,0 -15.14091,6.88724 -18.41392,11.15044 -1.73934,2.26555 -3.16245,4.43119 -3.16245,4.81253 0,0.38134 -0.84375,0.91399 -1.875,1.18367 -1.42887,0.37366 -1.875,1.27876 -1.875,3.80401 0,6.53882 3.62831,5.22209 6.09783,-2.21291 1.62889,-4.90417 5.94095,-8.42524 10.3179,-8.42524 1.23532,0 3.21512,-0.37436 4.39954,-0.83193 1.18441,-0.45755 4.36524,-1.3395 7.0685,-1.95987 l 4.91501,-1.12795 4.80839,3.52968 c 5.23658,3.84399 13.4002,6.95257 18.25858,6.95257 3.23489,0 7.97629,1.47478 8.80267,2.73802 1.36711,2.08982 17.20716,7.57448 21.87558,7.57448 1.14263,0 3.65177,0.84375 5.57586,1.875 1.92409,1.03125 4.07747,1.875 4.78528,1.875 0.70781,0 4.40074,1.03591 8.20652,2.30201 7.54953,2.51158 16.25235,3.19626 15.59592,1.22698 z m 102.23636,-6.83505 c -0.28865,-0.28864 -0.81286,0.23167 -1.16492,1.15625 -0.50876,1.33613 -0.40108,1.44381 0.52481,0.52481 0.64071,-0.63594 0.92876,-1.39241 0.64011,-1.68106 z m -275.19172,-2.93388 c -0.63472,-0.2568 -1.90035,-0.27243 -2.8125,-0.0348 -0.91216,0.2377 -0.39285,0.44781 1.15403,0.46692 1.54687,0.0191 2.29318,-0.17537 1.65847,-0.43218 z m 43.99403,-3.56438 c -0.42598,-3.85077 -4.60925,-9.55476 -7.98606,-10.88917 -5.35218,-2.11502 -13.69572,-7.62648 -14.26615,-9.42374 -0.30683,-0.96677 -0.92568,-1.75777 -1.3752,-1.75777 -0.44951,0 -2.72298,-1.64935 -5.05214,-3.66522 l -4.23484,-3.66523 -13.4003,0.3021 c -7.37017,0.16615 -20.78312,0.62527 -29.80656,1.02026 -9.02344,0.395 -17.46094,0.68181 -18.75,0.63736 -1.28906,-0.0444 -7.82812,-0.0637 -14.53125,-0.0427 -6.70312,0.021 -15.14062,-0.068 -18.75,-0.19766 -9.29332,-0.334 -26.881393,-0.30181 -35.15625,0.0643 -7.994076,0.35373 -17.286561,-1.2754 -23.351979,-4.09399 l -4.13323,-1.92072 -2.058993,2.39373 c -1.132446,1.31654 -3.003657,2.89929 -4.158247,3.5172 -1.429167,0.76487 -1.946404,1.70799 -1.620406,2.95461 0.275424,1.05322 -0.22546,2.51262 -1.17906,3.43535 -1.891275,1.83006 -2.927446,5.15563 -2.049157,6.57673 0.718418,1.16243 50.105291,-0.18311 58.707322,-1.59947 3.09375,-0.50939 13.38968,-1.1805 22.87985,-1.49134 9.49017,-0.31085 17.92767,-0.91433 18.75,-1.34109 0.82233,-0.42675 6.76859,-1.02193 13.2139,-1.32261 6.44531,-0.30068 16.57031,-0.99329 22.5,-1.53914 17.96773,-1.654 31.6603,1.44557 41.16564,9.31858 1.85109,1.5332 6.18893,4.23346 9.63965,6.00058 3.45072,1.76712 7.85007,4.74356 9.77634,6.61433 3.9621,3.84795 5.64419,3.88483 5.22712,0.11461 z m 237.86479,-5.54071 c 2.36038,-3.81918 2.76711,-7.44117 0.58916,-5.24649 -1.84538,1.85955 -4.50415,8.40402 -3.41424,8.40402 0.48048,0 1.75177,-1.42089 2.82508,-3.15753 z m 25.38896,-44.3978 c 0,-0.70828 0.64365,-2.53245 1.43032,-4.05373 0.78668,-1.52127 1.10309,-2.76593 0.70313,-2.76591 -0.97048,4e-5 -5.88345,6.20212 -5.88345,7.42722 0,0.53071 -0.80937,2.29583 -1.7986,3.9225 -0.98923,1.62667 -1.56678,3.56168 -1.28345,4.30006 0.57602,1.50107 6.83205,-6.58459 6.83205,-8.83014 z m 86.26238,-129.29745 c 1.54006,-3.16747 2.80012,-6.05684 2.80012,-6.42082 0,-0.36398 0.60329,-1.99117 1.34064,-3.61597 0.73736,-1.6248 2.4592,-5.90731 3.82633,-9.51668 1.36711,-3.60938 3.465,-9.09375 4.66197,-12.1875 1.19696,-3.09375 1.99632,-5.810826 1.77635,-6.037946 -0.97328,-1.004951 -3.11893,2.858648 -5.43572,9.787946 -1.3792,4.125 -3.3129,8.61784 -4.29713,9.98407 -0.98423,1.36625 -2.0902,3.68656 -2.45773,5.15625 -0.66502,2.65939 -3.51915,9.53131 -6.97603,16.79629 -0.99753,2.09639 -1.8043,4.41671 -1.79283,5.15625 0.0322,2.0762 3.37884,-2.57147 6.55403,-9.10189 z M 236.95312,288.62763 c -1.93359,-1.5796 -3.51562,-3.46389 -3.51562,-4.18731 0,-2.02193 1.31875,-1.57358 3.71428,1.2628 1.19758,1.41797 2.8156,3.31641 3.59562,4.21875 2.24579,2.59801 0.0559,1.85101 -3.79428,-1.29424 z m 3.98785,-5.96769 c -2.50513,-2.66659 -1.85,-4.3982 0.76773,-2.0292 0.9461,0.85622 2.21432,1.55676 2.81824,1.55676 0.60393,0 1.09806,0.63281 1.09806,1.40625 0,2.12973 -2.22218,1.68671 -4.68403,-0.93381 z m 4.33988,-8.20682 c -1.71155,-4.0519 -0.20988,-5.7734 2.24892,-2.57812 0.99195,1.28906 1.81291,3.08203 1.82438,3.98437 0.0352,2.76789 -2.71051,1.81998 -4.0733,-1.40625 z m 4.78375,-6.88853 c -0.30823,-0.30822 -0.32927,-1.16273 -0.0468,-1.89892 0.3941,-1.02702 0.81542,-1.08807 1.8104,-0.26231 0.71322,0.59192 1.29677,1.44644 1.29677,1.89893 0,0.92927 -2.20449,1.11821 -3.0604,0.2623 z m 3.9979,-6.39416 c 0,-0.73127 -0.25607,-1.9969 -0.56905,-2.8125 -0.36304,-0.94607 -0.06,-1.48293 0.83719,-1.48293 1.42844,0 2.54436,1.88393 2.54436,4.29543 0,0.73126 -0.63281,1.32957 -1.40625,1.32957 -0.77344,0 -1.40625,-0.59831 -1.40625,-1.32957 z m 5.65798,-8.9213 c -1.28166,-2.39481 -1.22572,-2.87413 0.33547,-2.87413 1.22837,0 2.44405,1.90341 2.44405,3.82668 0,1.5257 -1.77959,0.91583 -2.77952,-0.95255 z m 4.10776,-8.00744 c -0.33876,-1.34971 -0.31983,-2.75011 0.0421,-3.112 0.80151,-0.8015 3.46507,2.64545 3.03687,3.93005 -0.66352,1.99054 -2.49624,1.50359 -3.07893,-0.81805 z m 4.86581,-6.66212 c -0.82396,-2.1472 -0.69813,-5.07957 0.21796,-5.07957 0.81746,0 2.96299,4.10508 2.96299,5.66911 0,1.48012 -2.56949,1.0039 -3.18095,-0.58954 z m 4.11845,-9.29832 c 0,-3.86328 1.13525,-4.24428 2.66201,-0.89339 1.52394,3.34466 1.36747,4.17464 -0.78701,4.17464 -1.51786,0 -1.875,-0.625 -1.875,-3.28125 z m 5.65798,-7.90712 c -1.28166,-2.39481 -1.22572,-2.87413 0.33547,-2.87413 1.22837,0 2.44405,1.90341 2.44405,3.82668 0,1.5257 -1.77959,0.91583 -2.77952,-0.95255 z m 8.72803,-18.38331 c -0.30533,-0.79568 -0.35247,-1.64936 -0.10476,-1.89707 0.83522,-0.83521 3.53125,0.72061 3.53125,2.0378 0,1.77407 -2.73482,1.66175 -3.42649,-0.14073 z m 5.94602,-6.65879 c -0.93907,-0.93907 -0.7898,-5.01953 0.18363,-5.01953 0.73366,0 1.08367,0.77059 1.90559,4.19531 0.26977,1.12405 -1.20685,1.70659 -2.08922,0.82422 z m 7.2162,-8.5652 c -1.54925,-0.99738 -2.46053,-4.64224 -1.3346,-5.3381 0.53756,-0.33223 1.41232,0.53992 1.94391,1.93811 1.12583,2.96114 0.87584,4.3561 -0.60931,3.39999 z m 5.49864,-9.5663 c -2.40716,-1.96263 -2.75935,-3.76303 -0.7361,-3.76303 1.44329,0 3.64596,3.27414 3.14065,4.66841 -0.16235,0.44795 -1.24439,0.0405 -2.40455,-0.90538 z m 6.32947,-11.73017 c -0.63173,-0.76119 -0.88548,-2.06968 -0.56388,-2.90776 0.47379,-1.23467 0.84942,-1.30409 1.97988,-0.36589 1.5545,1.29011 1.83585,3.35777 0.56389,4.14389 -0.4572,0.28257 -1.34816,-0.10904 -1.97989,-0.87024 z m 5.00967,-10.35454 c -0.30533,-0.79568 -0.35247,-1.64936 -0.10476,-1.89707 0.83522,-0.83521 3.53125,0.72061 3.53125,2.0378 0,1.77407 -2.73482,1.66175 -3.42649,-0.14073 z m 5.625,-10.3125 c -0.30533,-0.79568 -0.32823,-1.67361 -0.0509,-1.95096 0.82436,-0.82436 4.51577,1.53839 3.91703,2.50717 -0.85908,1.39003 -3.2514,1.04584 -3.86616,-0.55621 z M 328.125,134.0625 c 0,-1.04167 0.625,-1.875 1.40625,-1.875 0.78125,0 1.40625,0.83333 1.40625,1.875 0,1.04167 -0.625,1.875 -1.40625,1.875 -0.78125,0 -1.40625,-0.83333 -1.40625,-1.875 z m 5.9751,-9.81489 c -0.31996,-0.83379 -0.29844,-1.79926 0.0478,-2.14551 0.79311,-0.79312 3.88499,1.09367 3.63599,2.21883 -0.33709,1.52329 -3.09215,1.46846 -3.68379,-0.0733 z m 9.25927,-9.556 c -1.7541,-0.70779 -1.54095,-7.81661 0.23438,-7.81661 1.04167,0 1.40625,1.09375 1.40625,4.21875 0,2.32031 -0.10547,4.18544 -0.23438,4.14473 -0.1289,-0.0407 -0.76171,-0.2868 -1.40625,-0.54687 z m 7.125,-12.50411 c -0.0773,-2.0625 -0.18281,-4.171875 -0.23437,-4.6875 -0.0516,-0.515625 0.29777,-1.042969 0.7763,-1.171875 1.19545,-0.322031 2.54816,4.915835 1.93692,7.500005 -0.80879,3.41934 -2.32677,2.41467 -2.47884,-1.64063 z m 7.28907,-10.429688 c -0.8877,-4.438508 -0.70648,-6.641744 0.51286,-6.235296 1.314,0.438001 2.22303,9.164984 0.95466,9.164984 -0.48487,0 -1.14526,-1.318359 -1.46752,-2.929688 z m 7.35395,-13.213698 c -0.81728,-2.129811 -0.21923,-4.712384 1.20073,-5.185177 1.38491,-0.461116 1.57464,3.302548 0.27045,5.36479 -0.75189,1.18893 -0.95556,1.164064 -1.47118,-0.179613 z m 5.36009,-13.08129 c 0.32341,-3.274888 2.63752,-4.913499 2.63752,-1.867625 0,2.571168 -0.95431,4.842301 -2.0347,4.842301 -0.49313,0 -0.7644,-1.338605 -0.60282,-2.974676 z M 375.9375,52.5 c 0,-0.515625 0.42187,-0.9375 0.9375,-0.9375 0.51562,0 0.9375,0.421875 0.9375,0.9375 0,0.515625 -0.42188,0.9375 -0.9375,0.9375 -0.51563,0 -0.9375,-0.421875 -0.9375,-0.9375 z"
     id="path4146"
     inkscape:connector-curvature="0" />
</svg>
